PathFileType	3	(X/Y/Z)	E:\ViconData\BIOM9541 2025\Week 7\Wed1100\Hanif high squat 5 Squat 01.trc
DataRate	CameraRate	NumFrames	NumMarkers	Units	OrigDataRate	OrigDataStartFrame	OrigNumFrames
200.0	200.0	15	19	mm	200.0	1269	1450	
Frame#	Time	C7			CLAV			RBAK			LASI			RASI			LPSI			RPSI			LTHI			LKNE			LTIB			LANK			LHEE			LTOE			RTHI			RKNE			RTIB			RANK			RHEE			RTOE			
		X1	Y1	Z1	X2	Y2	Z2	X3	Y3	Z3	X4	Y4	Z4	X5	Y5	Z5	X6	Y6	Z6	X7	Y7	Z7	X8	Y8	Z8	X9	Y9	Z9	X10	Y10	Z10	X11	Y11	Z11	X12	Y12	Z12	X13	Y13	Z13	X14	Y14	Z14	X15	Y15	Z15	X16	Y16	Z16	X17	Y17	Z17	X18	Y18	Z18	X19	Y19	Z19	
1269	6.34	322.65643	1309.0597	-1219.455	176.26735	1241.5347	-1216.5461	344.92383	1220.6061	-1363.5931	209.91727	872.01306	-1085.7247	206.2072	881.3206	-1348.2898	377.7539	936.1453	-1172.4519	378.0864	933.2536	-1245.9263	231.81279	564.43817	-981.61578	224.45575	422.30878	-977.84082	274.57208	219.88141	-956.07617	305.09326	63.623196	-972.48505	327.57324	50.206726	-1031.5103	160.85291	37.803543	-948.93933	261.55814	732.03723	-1418.4028	238.60965	418.98679	-1445.0967	259.2742	332.09262	-1459.3538	302.86795	72.564117	-1433.1412	324.30444	49.047894	-1368.5336	163.44101	41.24865	-1464.4573	
1270	6.345	322.60101	1310.3528	-1219.2522	176.21411	1243.0854	-1216.2589	344.86993	1221.7794	-1363.5394	209.28156	873.42773	-1085.5748	205.3229	882.3674	-1347.7389	376.992	937.5906	-1172.4717	377.3049	934.688	-1245.9628	233.19536	564.64868	-982.96826	226.88245	422.64432	-979.56836	275.83173	220.23477	-956.86707	305.26468	63.709564	-972.60242	327.62997	50.237965	-1031.6426	160.88138	37.841179	-949.05469	261.22488	732.88196	-1417.9564	241.05168	419.56186	-1443.2264	261.38116	332.61356	-1458.0376	303.06497	72.779411	-1432.9675	323.97845	49.573975	-1366.522	163.46419	41.280811	-1464.422	
1271	6.35	322.67267	1311.465	-1219.2242	176.19841	1244.5214	-1216.0492	344.74249	1222.8961	-1363.3606	208.63972	874.64581	-1085.3097	204.4958	883.6721	-1347.4727	376.2936	938.8248	-1172.4801	376.1158	936.1282	-1244.8175	234.55397	564.84344	-984.35791	229.2644	422.91519	-981.24255	277.04172	220.65829	-957.6604	305.44531	63.773766	-972.76929	327.67029	50.211376	-1031.7875	160.9019	37.811794	-949.1098	260.8876	733.65393	-1417.4811	243.45493	420.08078	-1441.4501	263.53754	333.00464	-1456.7164	303.37341	72.89267	-1432.825	324.02237	49.535725	-1366.4551	163.51822	41.259678	-1464.3921	
1272	6.355	322.66101	1312.4889	-1219.1252	176.40256	1245.532	-1215.5786	344.66565	1223.8228	-1363.2776	208.09772	875.87622	-1085.0863	203.6218	884.8356	-1347.2246	375.5916	940.0083	-1172.4553	376.1023	938.5021	-1243.2992	235.9525	565.09875	-985.62335	231.61296	423.17368	-982.91528	278.27002	220.9771	-958.4964	305.62183	63.848606	-972.96625	327.66824	50.122425	-1031.8892	160.8653	37.809814	-949.1944	260.49088	734.0249	-1417.1364	245.83073	420.50513	-1439.6475	265.65161	333.34106	-1455.3601	303.52109	72.832779	-1432.5061	323.68924	49.306625	-1365.981	163.55168	41.195259	-1464.3438	
1273	6.36	322.71939	1313.399	-1219.0591	176.30476	1246.7063	-1215.4701	344.49619	1224.7175	-1363.1254	207.51909	876.98413	-1084.8964	202.7682	885.9286	-1346.9709	374.9356	941.1064	-1172.7013	374.5518	938.0928	-1245.3373	237.28403	565.19446	-986.89685	233.86012	423.38654	-984.60822	279.46622	221.33684	-959.36084	305.82953	63.870422	-973.17859	327.70081	50.098133	-1032.0172	160.83995	37.794315	-949.21912	260.07739	734.65948	-1416.678	248.14873	420.97864	-1437.9362	267.72989	333.68872	-1454.0437	303.75003	72.912712	-1432.2832	323.78571	49.214958	-1365.9523	163.58571	41.195248	-1464.311	
1274	6.365	322.73456	1314.3235	-1218.9331	175.95729	1248.11	-1215.5667	344.36224	1225.4928	-1362.9951	206.90088	877.8656	-1084.7574	201.9501	886.9441	-1346.7418	374.2588	942.0844	-1172.3618	374.1042	939.8758	-1241.9283	238.5676	565.22675	-988.17578	236.09854	423.61407	-986.26758	280.58786	221.50301	-960.17712	305.95435	63.958248	-973.35339	327.70605	50.102222	-1032.1223	160.81383	37.778111	-949.30927	259.94373	735.28522	-1416.2206	250.40561	421.43088	-1436.1945	269.76089	334.10284	-1452.813	303.97256	72.984863	-1432.0573	323.77829	49.157879	-1365.7433	163.57262	41.242996	-1464.281	
1275	6.37	322.78741	1315.0688	-1218.9032	175.9782	1249.0594	-1215.2944	344.13171	1226.2115	-1362.84	206.41222	878.65002	-1084.5718	201.1649	887.8946	-1346.4673	373.6386	942.9904	-1172.328	373.2851	940.5231	-1241.6537	239.81842	565.12598	-989.46851	238.31339	423.7283	-987.93164	281.73004	221.69487	-961.01276	306.0899	64.032257	-973.54083	327.74161	50.104176	-1032.3053	160.76573	37.780666	-949.41681	259.60895	735.80896	-1415.8253	252.6539	421.87372	-1434.6085	271.7103	334.40179	-1451.5051	304.19611	73.06971	-1431.8412	323.8255	49.088184	-1365.6409	163.56107	41.280342	-1464.2678	
1276	6.375	322.78418	1315.8727	-1218.7307	176.0997	1249.7836	-1214.7594	344.08215	1226.9562	-1362.806	205.86084	879.48407	-1084.3729	200.4374	888.6411	-1346.1776	373.0229	943.7334	-1172.3124	372.9611	941.0196	-1246.0144	241.08383	565.16168	-990.65009	240.4122	423.83707	-989.45184	282.8212	221.92424	-961.84235	306.20621	64.121017	-973.73163	327.69153	49.997608	-1032.4111	160.74478	37.785797	-949.50781	259.28235	736.20044	-1415.3743	254.86145	422.1304	-1432.9739	273.59103	334.70627	-1450.2817	304.39032	73.123894	-1431.6328	323.92896	48.997742	-1365.6228	163.58496	41.234585	-1464.2416	
1277	6.38	322.88113	1316.5267	-1218.6995	176.06459	1250.6017	-1214.6483	343.92667	1227.5977	-1362.6262	205.2746	880.19934	-1084.1592	199.6501	889.2996	-1346.0424	372.5042	944.3285	-1172.5763	372.3654	941.6874	-1246.1494	242.33492	565.15717	-991.77417	242.50763	423.95197	-990.8844	283.8443	222.04147	-962.63599	306.3728	64.154381	-973.9682	327.72632	49.850224	-1032.6135	160.67357	37.824783	-949.74561	259.02386	736.35455	-1415.0352	257.03452	422.34424	-1431.5469	275.48633	334.83365	-1449.2183	304.59595	73.088776	-1431.4597	324.00024	48.847485	-1365.7094	163.62506	41.133892	-1464.2371	
1278	6.385	322.91406	1317.0958	-1218.5983	175.6803	1251.6578	-1214.871	343.85208	1228.1564	-1362.5499	204.79012	880.86078	-1083.9907	198.9184	889.9574	-1345.842	371.9577	944.8481	-1172.7025	371.3533	942.5651	-1242.0618	243.55565	565.11243	-992.8653	244.56091	424.05975	-992.15613	284.88409	222.30745	-963.2757	306.58331	64.17556	-974.21729	327.80508	49.810955	-1032.8403	160.7128	37.803619	-949.71857	258.71246	736.55548	-1414.6296	259.07828	422.48694	-1430.162	277.23846	334.97159	-1448.1483	304.79367	73.008484	-1431.3157	324.05975	48.748398	-1365.7059	163.65714	41.076565	-1464.2419	
1279	6.39	322.95911	1317.6553	-1218.4818	175.98	1252.1062	-1214.2833	343.66	1228.5726	-1362.4822	204.30453	881.27948	-1083.8748	198.2886	890.3805	-1345.5544	371.3715	945.3944	-1172.6158	370.8281	943.1269	-1242.1998	244.73096	565.03992	-993.89197	246.53745	424.10898	-993.35193	285.97864	222.41687	-963.96075	306.76382	64.200981	-974.33209	327.81284	49.749969	-1032.9592	160.67577	37.793797	-949.85852	258.44647	736.70306	-1414.2401	261.06693	422.66287	-1428.8058	278.90198	335.1149	-1447.1472	304.97763	73.048393	-1431.153	324.06659	48.690601	-1365.6149	163.65627	41.092541	-1464.2377	
1280	6.395	323.0238	1318.0703	-1218.4222	175.6685	1252.8625	-1214.4899	343.47559	1228.8827	-1362.4664	203.75009	881.64886	-1083.6416	197.5925	890.8363	-1345.375	370.8036	945.8502	-1172.4736	370.16	943.4042	-1245.1599	245.83614	564.85443	-994.88257	248.48833	424.07816	-994.41064	286.94373	222.47797	-964.52075	306.93707	64.138733	-974.46106	327.82693	49.713501	-1033.0569	160.66783	37.789478	-949.91809	258.19333	736.83563	-1413.9487	262.944	422.88007	-1427.5698	280.52139	335.26544	-1446.2292	305.16235	73.121712	-1430.9849	324.04749	48.610447	-1365.3926	163.64957	41.170856	-1464.2499	
1281	6.4	323.09467	1318.3499	-1218.3663	175.95184	1253.1176	-1213.8512	343.31769	1229.1471	-1362.3608	203.24797	881.96075	-1083.4042	196.9862	891.1615	-1345.2122	370.2403	946.1103	-1172.2729	369.6186	943.9616	-1241.7643	246.95236	564.63776	-995.81561	250.38501	423.97592	-995.43347	288.00165	222.57724	-965.05353	307.04648	64.125954	-974.54895	327.90854	49.691723	-1033.1709	160.6861	37.766663	-949.92358	257.99817	736.85614	-1413.6622	264.81351	423.06281	-1426.4789	282.04379	335.38879	-1445.306	305.34662	73.166283	-1430.8334	324.04553	48.588989	-1365.2012	163.66628	41.210571	-1464.266	
1282	6.405	323.21667	1318.5835	-1218.3156	175.91499	1253.5717	-1213.7295	343.20132	1229.3226	-1362.316	202.78764	882.17822	-1083.287	196.3797	891.373	-1345.0626	369.7102	946.2968	-1172.2506	369.7046	944.9094	-1243.2236	247.96733	564.46539	-996.58728	252.19255	423.95673	-996.26794	288.99747	222.60953	-965.55426	307.23364	64.050095	-974.70453	328.00342	49.641384	-1033.2465	160.69662	37.765297	-949.89392	257.75363	736.77905	-1413.3633	266.60339	423.10815	-1425.4188	283.57861	335.45087	-1444.5072	305.52789	73.191444	-1430.7524	324.07596	48.485092	-1365.2031	163.69739	41.196419	-1464.3575	
1283	6.41	323.31525	1318.7162	-1218.2264	175.92265	1253.9536	-1213.6151	343.11063	1229.4011	-1362.2717	202.33623	882.37219	-1083.1531	195.8366	891.4382	-1344.9039	369.257	946.3606	-1172.4004	368.406	943.9763	-1245.0326	248.94254	564.29565	-997.23798	253.9343	423.8606	-997.17108	289.91614	222.6998	-965.99023	307.39764	64.005264	-974.7558	328.04272	49.521488	-1033.2737	160.75681	37.705135	-949.67236	257.54395	736.64758	-1413.1478	268.3071	423.14914	-1424.4301	285.07721	335.46466	-1443.7717	305.73105	73.107277	-1430.6617	324.15366	48.334209	-1365.3167	163.73103	41.139088	-1464.4323	
